<?xml version="1.0" standalone="no"?>
<!DOCTYPE svg PUBLIC "-//W3C//DTD SVG 20010904//EN"
 "http://www.w3.org/TR/2001/REC-SVG-20010904/DTD/svg10.dtd">
<svg version="1.0" xmlns="http://www.w3.org/2000/svg"
 width="278.000000pt" height="190.000000pt" viewBox="0 0 278.000000 190.000000"
 preserveAspectRatio="xMidYMid meet">

<g transform="translate(0.000000,190.000000) scale(0.100000,-0.100000)"
fill="#000000" stroke="none">
<path d="M592 1579 c-31 -12 -164 -111 -158 -117 3 -2 23 10 45 27 22 18 66
47 97 66 57 34 62 43 16 24z"/>
<path d="M659 1531 c-24 -16 -64 -49 -87 -74 l-44 -45 55 -31 c30 -17 59 -31
65 -31 6 0 15 24 21 53 6 28 19 74 27 100 9 27 14 50 12 53 -3 2 -24 -9 -49
-25z"/>
<path d="M726 1552 c-8 -13 -46 -170 -46 -189 0 -17 12 -21 107 -30 101 -11
108 -11 121 8 7 10 22 19 34 19 16 0 19 -5 15 -22 -5 -21 -5 -21 7 -5 17 22
26 22 26 -2 0 -14 10 -20 47 -25 25 -3 48 -4 51 -1 2 2 -13 55 -34 117 l-39
113 -70 6 c-156 15 -215 17 -219 11z"/>
<path d="M1510 1553 c0 -5 34 -42 75 -83 41 -41 73 -75 72 -77 -2 -1 -27 4
-57 13 -30 8 -125 19 -210 24 -174 10 -206 17 -273 60 -26 16 -47 28 -47 26 0
-3 16 -50 36 -105 42 -118 23 -111 217 -80 150 23 125 26 442 -39 227 -46 405
-101 405 -124 0 -4 -10 -6 -22 -4 -42 9 -211 27 -215 22 -2 -2 20 -9 49 -16
68 -16 220 -69 233 -81 5 -5 18 -9 28 -9 22 0 117 -49 117 -61 0 -4 -16 -13
-35 -20 -29 -11 -34 -16 -29 -36 4 -16 2 -23 -7 -23 -10 0 -10 -3 -3 -8 16
-11 24 -62 9 -62 -7 0 -24 -9 -39 -21 -14 -11 -26 -16 -26 -10 0 6 6 11 13 12
6 0 2 4 -10 9 -26 11 -27 20 -9 73 8 20 12 37 10 37 -2 0 -24 -9 -48 -21 l-44
-20 -39 24 c-65 41 -201 107 -293 142 -124 47 -261 79 -533 125 -467 79 -672
119 -722 141 -60 27 -140 49 -177 49 -16 0 -28 5 -28 10 0 6 9 10 20 10 12 0
20 7 20 16 0 14 -11 16 -69 12 -76 -4 -90 -10 -72 -32 10 -11 5 -15 -26 -18
-46 -6 -51 -3 -34 24 10 16 10 19 0 16 -15 -5 -58 -77 -59 -98 0 -8 -7 -28
-15 -44 -19 -37 -19 -45 3 -53 9 -4 45 -35 79 -69 59 -59 63 -66 63 -109 0
-25 6 -60 14 -78 44 -106 202 -128 264 -37 13 19 27 35 30 34 4 -1 188 -56
408 -124 l402 -122 11 -38 c17 -59 64 -115 117 -141 39 -18 66 -23 134 -23
107 -1 177 21 220 70 l30 35 75 -10 c52 -8 98 -8 147 -1 120 17 324 94 357
134 20 24 9 20 -87 -28 -117 -59 -255 -96 -352 -95 -41 0 -84 4 -95 9 -13 6
10 9 70 8 133 -2 175 21 144 79 -9 18 -19 30 -23 26 -3 -3 -6 -2 -6 4 0 5 11
15 25 21 21 10 25 18 26 59 0 27 4 57 8 68 5 11 6 -12 3 -52 -4 -62 -2 -73 11
-73 10 0 14 -6 11 -14 -3 -8 -1 -17 4 -20 6 -3 12 0 15 7 3 8 67 35 142 62
l137 48 46 68 c26 37 52 68 58 69 15 0 21 15 30 76 6 44 5 48 -9 36 -13 -11
-20 -11 -40 2 -39 26 -175 73 -308 106 -127 32 -189 37 -82 7 34 -10 99 -35
145 -56 46 -21 97 -41 113 -45 52 -13 125 -50 125 -65 0 -25 -23 -91 -32 -91
-4 0 -8 18 -8 40 0 38 -12 52 -25 30 -9 -15 -35 -12 -35 3 0 13 -103 67 -127
67 -6 0 -69 25 -138 55 -149 65 -218 85 -415 120 -250 44 -259 46 -230 57 13
5 35 6 47 3 27 -6 73 3 73 16 0 5 -32 43 -72 85 -69 72 -108 104 -108 87z
m-1353 -299 c-8 -8 -37 8 -37 20 0 7 6 18 12 24 10 10 15 7 21 -13 5 -15 7
-28 4 -31z m301 -59 c30 -46 23 -44 -17 5 -17 22 -26 37 -19 35 7 -3 23 -21
36 -40z m75 -40 c21 -42 23 -55 12 -55 -15 0 -34 28 -40 58 -2 9 -6 25 -10 35
-4 9 -3 17 2 17 5 0 21 -25 36 -55z m-130 -43 c23 -38 26 -134 6 -158 -17 -21
-49 -14 -72 18 -24 33 -35 125 -17 157 17 33 59 24 83 -17z m557 -187 c215
-63 397 -112 405 -108 10 3 15 -2 15 -16 0 -12 -5 -21 -10 -21 -15 0 -796 236
-811 245 -5 4 -9 11 -9 16 0 6 4 8 9 4 6 -3 186 -57 401 -120z m551 79 c132
-29 198 -56 231 -91 21 -24 20 -24 -19 4 -39 28 -92 46 -273 92 -110 28 -71
25 61 -5z m926 -37 c-2 -18 0 -40 5 -49 6 -13 5 -18 -7 -18 -12 0 -15 12 -15
56 0 33 4 53 10 49 5 -3 8 -20 7 -38z m43 13 c0 -39 -14 -39 -17 0 -1 17 2 30
7 30 6 0 10 -13 10 -30z m27 -17 c-3 -10 -5 -2 -5 17 0 19 2 27 5 18 2 -10 2
-26 0 -35z m-117 -17 c0 -26 5 -46 13 -49 6 -3 2 -6 -10 -6 -21 -1 -23 4 -23
49 0 28 5 50 10 50 6 0 10 -20 10 -44z m-50 -10 c0 -26 5 -46 12 -48 7 -3 2
-7 -10 -10 -21 -6 -22 -3 -22 48 0 30 5 54 10 54 6 0 10 -20 10 -44z m-979
-32 c-5 -21 -9 -30 -10 -19 -1 24 10 67 15 62 3 -2 0 -22 -5 -43z m1119 24 c0
-9 4 -8 10 2 8 13 10 13 10 -1 0 -9 -7 -20 -16 -23 -23 -9 -24 -8 -24 14 0 11
5 20 10 20 6 0 10 -6 10 -12z m-862 -67 c93 -65 95 -240 4 -278 -31 -13 -40
-13 -79 2 -105 40 -144 209 -65 282 22 21 34 24 69 20 22 -2 55 -14 71 -26z
m387 18 c4 -6 5 -13 2 -16 -8 -8 -67 7 -67 18 0 13 57 11 65 -2z m-638 -41
c-3 -8 -6 -5 -6 6 -1 11 2 17 5 13 3 -3 4 -12 1 -19z m707 -109 c52 -1 63 -3
41 -9 -39 -9 -236 0 -255 12 -10 6 13 7 64 4 43 -3 111 -7 150 -7z"/>
<path d="M344 1118 c-13 -21 -8 -96 10 -122 16 -25 56 -36 56 -16 0 5 -6 7
-14 4 -31 -12 -65 97 -42 135 4 6 5 11 2 11 -3 0 -8 -5 -12 -12z"/>
<path d="M1521 841 c-30 -30 -36 -84 -16 -136 35 -94 124 -116 162 -41 l16 31
-26 -27 c-14 -16 -33 -28 -42 -28 -87 0 -136 146 -68 200 19 15 22 20 9 20 -9
0 -25 -9 -35 -19z"/>
<path d="M1040 1522 c0 -16 72 -216 81 -226 5 -6 -9 43 -31 108 -38 114 -50
142 -50 118z"/>
<path d="M1928 1323 c7 -3 16 -2 19 1 4 3 -2 6 -13 5 -11 0 -14 -3 -6 -6z"/>
<path d="M1380 1300 c0 -12 17 -12 45 0 17 7 15 9 -12 9 -18 1 -33 -3 -33 -9z"/>
<path d="M2563 943 c-23 -34 -29 -51 -22 -60 6 -6 8 -18 4 -25 -6 -14 4 1 53
74 37 58 37 58 15 58 -10 0 -32 -22 -50 -47z"/>
<path d="M2271 964 c0 -11 3 -14 6 -6 3 7 2 16 -1 19 -3 4 -6 -2 -5 -13z"/>
<path d="M1642 428 c-5 -7 -17 -58 -26 -113 -10 -55 -20 -110 -23 -122 -4 -20
-1 -23 25 -23 30 0 31 2 37 55 5 37 13 59 24 65 31 16 43 -3 35 -57 -6 -46 -4
-52 15 -63 26 -13 61 -4 61 16 0 8 -5 14 -11 14 -8 0 -10 18 -5 60 7 58 6 60
-19 72 -19 8 -31 8 -51 -1 l-27 -12 7 55 c5 44 3 55 -10 60 -21 8 -20 8 -32
-6z"/>
<path d="M584 395 c-19 -19 -24 -34 -22 -57 3 -33 10 -39 83 -70 43 -19 41
-52 -3 -56 -22 -2 -34 2 -38 12 -4 10 -18 16 -35 16 -24 0 -29 -4 -29 -24 0
-28 15 -41 57 -50 73 -16 143 20 143 73 0 38 -11 50 -66 69 -36 13 -50 24 -52
40 -3 16 3 23 22 28 28 7 56 -9 56 -32 0 -8 5 -14 11 -14 20 0 49 21 49 35 0
57 -128 78 -176 30z"/>
<path d="M1895 408 c-33 -19 -43 -39 -55 -108 -15 -83 -11 -111 20 -128 55
-28 160 11 160 60 0 25 -46 24 -60 -2 -11 -21 -54 -27 -65 -9 -12 18 5 117 24
140 25 31 61 18 61 -22 0 -27 3 -30 28 -27 23 2 28 8 30 36 5 49 -20 72 -77
72 -25 0 -55 -6 -66 -12z"/>
<path d="M833 330 c-12 -5 -29 -20 -37 -33 -17 -24 -24 -96 -12 -115 20 -32
126 -19 146 19 9 16 7 19 -15 19 -14 0 -34 -6 -45 -12 -17 -11 -22 -10 -30 2
-17 26 -5 35 53 38 55 3 57 4 57 30 0 15 -4 33 -9 40 -10 17 -79 25 -108 12z
m60 -44 c7 -19 -1 -26 -30 -26 -25 0 -26 1 -17 24 8 20 40 21 47 2z"/>
<path d="M1032 330 c-27 -12 -52 -66 -52 -115 0 -29 5 -37 28 -46 21 -8 33 -8
53 3 22 13 28 13 46 1 25 -17 63 -9 63 13 0 8 -5 14 -11 14 -8 0 -9 20 -4 65
7 64 6 65 -18 65 -13 0 -37 2 -53 5 -16 2 -39 0 -52 -5z m61 -75 c-4 -57 -45
-76 -51 -22 -4 35 15 69 36 65 13 -3 16 -13 15 -43z"/>
<path d="M1306 333 c-4 -5 -24 -8 -44 -8 l-36 0 -12 -65 c-18 -92 -18 -92 13
-88 25 3 29 8 36 53 11 68 26 84 49 55 22 -27 52 -23 56 8 6 38 -37 69 -62 45z"/>
<path d="M1443 325 c-32 -14 -53 -58 -53 -112 0 -51 95 -69 141 -27 27 24 23
37 -8 31 -67 -13 -68 -13 -71 15 -6 54 43 96 55 47 8 -28 57 -23 61 8 6 45
-62 66 -125 38z"/>
<path d="M2112 330 c-27 -12 -52 -66 -52 -115 0 -28 5 -38 26 -47 21 -10 31
-9 53 3 24 14 30 14 48 2 25 -17 63 -9 63 13 0 8 -5 14 -11 14 -8 0 -9 20 -4
65 7 64 6 65 -18 65 -13 0 -37 2 -53 5 -16 2 -39 0 -52 -5z m62 -75 c-2 -38
-17 -57 -41 -48 -18 7 -16 58 3 78 24 24 39 12 38 -30z"/>
<path d="M2386 333 c-4 -5 -24 -8 -44 -8 l-36 0 -12 -65 c-18 -92 -18 -92 13
-88 25 3 29 9 38 55 13 67 27 82 48 53 19 -27 51 -23 55 8 6 38 -37 69 -62 45z"/>
</g>
</svg>
